<?xml version="1.0" standalone="no"?>
<!DOCTYPE svg PUBLIC "-//W3C//DTD SVG 20010904//EN"
 "http://www.w3.org/TR/2001/REC-SVG-20010904/DTD/svg10.dtd">
<svg version="1.0" xmlns="http://www.w3.org/2000/svg"
 width="24.000000pt" height="24.000000pt" viewBox="0 0 512.000000 512.000000"
 preserveAspectRatio="xMidYMid meet">

<g transform="translate(0.000000,512.000000) scale(0.100000,-0.100000)"
fill="#ffffff" stroke="none">
<path d="M2428 4730 c-167 -28 -349 -134 -458 -265 -66 -79 -109 -155 -143
-253 -28 -82 -31 -98 -35 -269 l-4 -183 -224 0 c-221 0 -223 0 -251 -24 l-28
-24 0 -1642 0 -1642 28 -24 28 -24 1219 0 1219 0 28 24 28 24 0 1642 0 1642
-28 24 c-28 24 -30 24 -253 24 l-224 0 0 134 c0 148 -17 259 -54 354 -132 337
-492 542 -848 482z m248 -171 c32 -6 97 -29 144 -51 163 -78 288 -237 325
-413 9 -41 15 -125 15 -202 l0 -133 -600 0 -600 0 0 145 c0 161 10 222 50 310
116 256 385 395 666 344z m-886 -1152 c0 -175 -1 -185 -21 -203 -78 -69 -57
-199 39 -245 103 -50 212 20 212 136 0 39 -19 83 -44 104 -14 11 -16 43 -16
202 l0 189 600 0 600 0 0 -184 c0 -183 0 -185 -25 -212 -57 -62 -53 -157 10
-213 61 -53 139 -53 201 1 62 54 66 150 9 212 -25 27 -25 29 -25 212 l0 184
170 0 170 0 0 -1520 0 -1520 -1110 0 -1110 0 0 1520 0 1520 170 0 170 0 0
-183z"/>
</g>
</svg>
